HIERARCHY
ROOT Hips
{
	OFFSET 0.00000 0.00000 0.00000
	CHANNELS 6 Xposition Yposition Zposition Zrotation Yrotation Xrotation 
	JOINT LHipJoint
	{
		OFFSET 0 0 0
		CHANNELS 3 Zrotation Yrotation Xrotation
		JOINT LeftHip
		{
			OFFSET 1.55766 -1.60504 1.11378
			CHANNELS 3 Zrotation Yrotation Xrotation
			JOINT LeftKnee
			{
				OFFSET 2.29047 -6.29302 0.00000
				CHANNELS 3 Zrotation Yrotation Xrotation
				JOINT LeftAnkle
				{
					OFFSET 2.52265 -6.93093 0.00000
					CHANNELS 3 Zrotation Yrotation Xrotation
					JOINT LeftToe
					{
						OFFSET 0.17633 -0.48446 2.02656
						CHANNELS 3 Zrotation Yrotation Xrotation
						End Site
						{
							OFFSET 0.00000 -0.00000 1.04989
						}
					}
				}
			}
		}
	}
	JOINT RHipJoint
	{
		OFFSET 0 0 0
		CHANNELS 3 Zrotation Yrotation Xrotation
		JOINT RightHip
		{
			OFFSET -1.48599 -1.60504 1.11378
			CHANNELS 3 Zrotation Yrotation Xrotation
			JOINT RightKnee
			{
				OFFSET -2.27280 -6.24448 0.00000
				CHANNELS 3 Zrotation Yrotation Xrotation
				JOINT RightAnkle
				{
					OFFSET -2.50834 -6.89161 0.00000
					CHANNELS 3 Zrotation Yrotation Xrotation
					JOINT RightToe
					{
						OFFSET -0.26967 -0.74090 2.08741
						CHANNELS 3 Zrotation Yrotation Xrotation
						End Site
						{
							OFFSET -0.00000 -0.00000 1.10614
						}
					}
				}
			}
		}
	}
	JOINT lowerback
	{
		OFFSET 0 0 0
		CHANNELS 3 Zrotation Yrotation Xrotation
		JOINT Chest
		{
			OFFSET 0.06481 2.02437 -0.08472
			CHANNELS 3 Zrotation Yrotation Xrotation
			JOINT Chest2
			{
				OFFSET 0.00015 1.96711 0.18069
				CHANNELS 3 Zrotation Yrotation Xrotation
				JOINT lowerneck
				{
					OFFSET 0 0 0
					CHANNELS 3 Zrotation Yrotation Xrotation
					JOINT Neck
					{
						OFFSET -0.29961 1.68293 -0.13041
						CHANNELS 3 Zrotation Yrotation Xrotation
						JOINT Head
						{
							OFFSET 0.59697 1.61501 -0.14669
							CHANNELS 3 Zrotation Yrotation Xrotation
							End Site
							{
								OFFSET 0.22973 1.74906 -0.10148
							}
						}
					}
				}
				JOINT LeftCollar
				{
					OFFSET 0 0 0
					CHANNELS 3 Zrotation Yrotation Xrotation
					JOINT LeftShoulder
					{
						OFFSET 3.37968 1.02893 0.31147
CHANNELS 3 Zrotation Xrotation Yrotation
						JOINT LeftElbow
						{
OFFSET 0 -5.198070 -0.000000
CHANNELS 3 Zrotation Xrotation Yrotation
							JOINT LeftWrist
							{
OFFSET 0 -3.093700 -0.000000
CHANNELS 3 Zrotation Xrotation Yrotation
								JOINT lhand
								{
									OFFSET 0 0 0
CHANNELS 3 Zrotation Xrotation Yrotation
									JOINT LFingers
									{
OFFSET 0 -0.672630 -0.000000
CHANNELS 3 Zrotation Xrotation Yrotation
										End Site
										{
OFFSET 0 -0.542290 -0.000000
										}
									}
								}
								JOINT LThumb
								{
OFFSET 0 0.000000 0.000000
CHANNELS 3 Zrotation Xrotation Yrotation
									End Site
									{
OFFSET 0 -0.550570 0.550570
									}
								}
							}
						}
					}
				}
				JOINT RightCollar
				{
					OFFSET 0 0 0
					CHANNELS 3 Zrotation Yrotation Xrotation
					JOINT RightShoulder
					{
						OFFSET -3.38254 0.96355 -0.16120
CHANNELS 3 Zrotation Xrotation Yrotation
						JOINT RightElbow
						{
OFFSET 0 -5.452220 -0.000000
CHANNELS 3 Zrotation Xrotation Yrotation
							JOINT RightWrist
							{
OFFSET 0 -3.012840 -0.000000
CHANNELS 3 Zrotation Xrotation Yrotation
								JOINT rhand
								{
									OFFSET 0 0 0
CHANNELS 3 Zrotation Xrotation Yrotation
									JOINT RFingers
									{
OFFSET 0 -0.622300 -0.000000
CHANNELS 3 Zrotation Xrotation Yrotation
										End Site
										{
OFFSET 0 -0.501710 -0.000000
										}
									}
								}
								JOINT RThumb
								{
OFFSET 0 0.000000 0.000000
CHANNELS 3 Zrotation Xrotation Yrotation
									End Site
									{
OFFSET 0 -0.509370 0.509370
									}
								}
							}
						}
					}
				}
			}
		}
	}
}
MOTION
Frames: 10
Frame Time: 0.008333333333333333
-5.573864 16.680812 -26.035627 -139.487830 -84.583677 152.283708 0.000000 0.000000 0.000000 -1.663710 -8.591152 -15.924670 1.547524 7.852065 22.265697 0.695248 0.352552 -15.888790 2.798891 -10.362081 -30.157403 0.000000 0.000000 0.000000 11.522401 2.815301 -16.191143 -1.263408 -7.124921 20.086019 -0.830633 8.435621 -16.421555 -3.024590 10.734615 -31.390245 5.050649 3.349625 -6.171854 -0.531734 3.978332 -8.752372 -3.285666 1.520337 -5.296675 -31.551569 -8.236641 13.139794 39.348978 -17.543996 -2.017915 19.693625 -10.593573 4.289281 0.000000 0.000000 0.000000 2.200015 18.730309 -21.039096 20.132774 -30.801949 5.599192 12.399643 -37.907689 13.802360 0.000000 0.000000 0.000000 -7.125000 0.000000 0.000000 -10.267338 16.007753 -7.154991 0.000000 0.000000 0.000000 -2.602267 7.708892 11.744656 -13.423358 -21.904302 -2.609126 -10.203206 26.766540 -1.987741 0.000000 0.000000 0.000000 7.125000 0.000000 0.000000 12.575798 27.879254 5.355230
-5.614157 16.656232 -25.769431 -143.714033 -85.261235 156.415583 0.000000 0.000000 0.000000 -3.424204 -6.924353 -17.059785 1.649602 8.094475 23.001331 0.820694 -2.659739 -16.427691 2.753350 -10.284610 -29.903318 0.000000 0.000000 0.000000 9.645907 3.579459 -15.344019 -1.226917 -7.025146 19.789822 -0.820928 6.601928 -16.169249 -3.377657 11.282526 -33.238916 4.649233 3.299324 -6.186790 -0.701937 3.913292 -8.802005 -3.242963 1.502628 -5.357760 -31.459092 -8.285113 13.270983 39.416160 -17.598999 -2.228454 19.703170 -10.637121 4.231123 0.000000 0.000000 0.000000 2.243162 18.878397 -21.313965 20.145162 -30.816820 5.605488 12.400007 -37.767575 13.890016 0.000000 0.000000 0.000000 -7.125000 0.000000 0.000000 -10.265761 15.919693 -7.173691 0.000000 0.000000 0.000000 -2.581788 7.946751 10.910103 -13.264950 -21.674226 -2.550322 -10.396135 27.240049 -1.785421 0.000000 0.000000 0.000000 7.125000 0.000000 0.000000 12.451910 28.080995 5.239163
-5.644717 16.638242 -25.490711 -152.844646 -86.039269 165.355377 0.000000 0.000000 0.000000 -5.479863 -5.888335 -17.874333 1.747503 8.318951 23.687153 0.864531 -5.405124 -16.587579 2.706942 -10.204764 -29.642448 0.000000 0.000000 0.000000 7.432186 4.224313 -14.589134 -1.217374 -6.998752 19.711809 -0.774175 4.929513 -15.693628 -3.709026 11.762580 -34.897516 3.934935 3.150664 -6.074661 -0.867214 3.734395 -8.784239 -3.028788 1.449915 -5.444061 -31.463758 -8.300263 13.333487 39.397300 -17.565283 -2.461213 19.695096 -10.619713 4.140953 0.000000 0.000000 0.000000 2.304355 18.819619 -21.527128 20.104220 -30.767737 5.584593 12.227204 -37.540677 13.818833 0.000000 0.000000 0.000000 -7.125000 0.000000 0.000000 -10.384580 16.003167 -7.240562 0.000000 0.000000 0.000000 -2.688522 8.022977 10.158814 -13.113528 -21.453380 -2.494664 -10.297179 27.787231 -1.695398 0.000000 0.000000 0.000000 7.125000 0.000000 0.000000 12.537474 28.169825 5.249769
-5.667727 16.629940 -25.198126 -171.930850 -86.831044 184.092676 0.000000 0.000000 0.000000 -8.051643 -5.713032 -18.283624 1.848865 8.543794 24.378510 0.864580 -7.117831 -16.615674 2.681729 -10.161057 -29.499827 0.000000 0.000000 0.000000 4.776188 4.575853 -13.866168 -1.234068 -7.044787 19.848035 -0.694224 3.562885 -14.936160 -3.984896 12.140074 -36.229659 2.984467 2.963448 -5.815612 -1.177722 3.512276 -8.682548 -2.838975 1.389363 -5.527889 -31.471322 -8.318420 13.486979 39.379892 -17.530281 -2.799054 19.694027 -10.609266 4.005959 0.000000 0.000000 0.000000 2.615862 18.507715 -21.923381 19.966272 -30.601710 5.514173 11.733095 -37.240336 13.480852 0.000000 0.000000 0.000000 -7.125000 0.000000 0.000000 -10.728147 16.374825 -7.400549 0.000000 0.000000 0.000000 -2.669480 8.033163 9.108608 -13.028122 -21.328466 -2.463475 -10.451725 28.434312 -1.606555 0.000000 0.000000 0.000000 7.125000 0.000000 0.000000 12.429922 28.258878 5.175805
-5.685704 16.627948 -24.893509 -201.917339 -87.210566 213.641654 0.000000 0.000000 0.000000 -10.877887 -6.050976 -18.404796 1.947331 8.755451 25.033356 0.852850 -8.182509 -16.597671 2.521389 -9.876277 -28.577364 0.000000 0.000000 0.000000 1.953815 4.672139 -13.209198 -1.278231 -7.165020 20.205113 -0.588040 2.471412 -13.849475 -4.270176 12.511316 -37.565918 2.051028 2.751466 -5.511355 -1.534436 3.253451 -8.509692 -2.704780 1.310910 -5.558208 -31.579939 -8.341412 13.678875 39.312142 -17.512394 -3.154388 19.685192 -10.604358 3.870566 0.000000 0.000000 0.000000 3.043487 18.022846 -22.544086 19.798999 -30.399429 5.429245 11.069501 -36.835447 12.875713 0.000000 0.000000 0.000000 -7.125000 0.000000 0.000000 -11.198012 17.020878 -7.576619 0.000000 0.000000 0.000000 -2.688350 8.075220 8.218989 -13.099181 -21.432351 -2.489398 -10.714086 28.559479 -1.461707 0.000000 0.000000 0.000000 7.125000 0.000000 0.000000 12.246299 28.404619 5.052714
-5.699303 16.625389 -24.572636 -231.151239 -87.044952 242.396426 0.000000 0.000000 0.000000 -13.499226 -6.642314 -18.311751 2.039409 8.947643 25.631679 0.827752 -9.198458 -16.507347 2.202220 -9.274244 -26.657782 0.000000 0.000000 0.000000 -0.610155 4.527930 -12.631407 -1.342452 -7.335574 20.713510 -0.462633 1.521105 -12.407731 -4.457325 12.745236 -38.422208 1.546431 2.548251 -5.194434 -1.848040 2.999290 -8.292629 -2.761150 1.212683 -5.527780 -31.796016 -8.372711 13.831737 39.216383 -17.537995 -3.407767 19.673732 -10.614073 3.796044 0.000000 0.000000 0.000000 3.508562 17.485058 -23.346434 19.705295 -30.285613 5.381923 10.629258 -36.374058 12.223924 0.000000 0.000000 0.000000 -7.125000 0.000000 0.000000 -11.522561 17.695287 -7.631411 0.000000 0.000000 0.000000 -2.789895 8.184254 7.723682 -13.349550 -21.797180 -2.581656 -11.105323 27.956187 -1.252060 0.000000 0.000000 0.000000 7.125000 0.000000 0.000000 11.970908 28.616351 4.872905
-5.708115 16.625286 -24.234405 -250.993604 -86.728331 261.725337 0.000000 0.000000 0.000000 -15.677489 -7.079588 -18.117303 2.121177 9.113975 26.152635 0.785699 -10.332227 -16.342714 1.825090 -8.490668 -24.215421 0.000000 0.000000 0.000000 -2.601156 4.090841 -12.365314 -1.449300 -7.609645 21.534762 -0.322672 0.672016 -10.507932 -4.492646 12.788635 -38.582297 1.700283 2.402664 -4.781549 -2.079062 2.815607 -8.123908 -3.102668 1.112050 -5.573878 -32.046951 -8.386971 13.998293 39.086521 -17.620496 -3.411343 19.648730 -10.652574 3.806419 0.000000 0.000000 0.000000 4.097077 17.081560 -24.472503 19.720170 -30.303657 5.389426 10.417787 -36.208378 11.823519 0.000000 0.000000 0.000000 -7.125000 0.000000 0.000000 -11.684098 18.104710 -7.635343 0.000000 0.000000 0.000000 -2.918937 8.442489 7.644169 -13.705542 -22.312119 -2.715342 -11.124951 26.885529 -1.190186 0.000000 0.000000 0.000000 7.125000 0.000000 0.000000 11.962786 28.678167 4.851500
-5.710990 16.628582 -23.885117 -263.269347 -86.343963 273.523080 0.000000 0.000000 0.000000 -17.667955 -7.169964 -17.882415 2.169800 9.211160 26.458063 0.733558 -11.428291 -16.145287 1.509979 -7.759883 -21.987505 0.000000 0.000000 0.000000 -4.280460 3.581797 -12.797269 -1.669020 -8.138957 23.137313 -0.192144 -0.121928 -8.316899 -4.400754 12.675361 -38.165146 2.076463 2.349278 -4.347642 -2.207220 2.757072 -8.008355 -3.462877 1.062034 -5.678415 -32.296097 -8.427975 14.175655 38.869896 -17.787811 -3.230895 19.559503 -10.727857 3.884686 0.000000 0.000000 0.000000 4.553234 16.740293 -25.562340 19.761932 -30.354483 5.410501 10.479036 -36.180096 11.969150 0.000000 0.000000 0.000000 -7.125000 0.000000 0.000000 -11.635975 17.956747 -7.641336 0.000000 0.000000 0.000000 -3.243636 8.700440 7.810961 -14.019498 -22.762580 -2.835688 -10.807045 25.842453 -1.367947 0.000000 0.000000 0.000000 7.125000 0.000000 0.000000 12.185939 28.498613 4.998924
-5.703642 16.633351 -23.536475 -269.834120 -85.788244 279.704708 0.000000 0.000000 0.000000 -19.750934 -6.771301 -17.689526 2.159946 9.191631 26.396632 0.644767 -12.681916 -15.741271 1.212297 -6.983481 -19.666914 0.000000 0.000000 0.000000 -5.952618 3.318468 -14.151007 -2.084872 -9.039270 25.919228 -0.082417 -1.216039 -6.003348 -4.176320 12.391282 -37.130903 2.223116 2.424847 -3.939352 -2.348086 2.868734 -7.943877 -3.708872 1.106665 -5.820329 -32.365870 -8.529602 14.461791 38.623310 -18.061403 -3.008754 19.401782 -10.865611 3.972181 0.000000 0.000000 0.000000 4.912373 16.360244 -26.442578 19.736144 -30.323077 5.397532 10.928370 -36.062356 12.547803 0.000000 0.000000 0.000000 -7.125000 0.000000 0.000000 -11.305254 17.356053 -7.567456 0.000000 0.000000 0.000000 -3.607115 8.828769 7.615258 -14.202248 -23.023019 -2.906717 -10.922708 25.491186 -1.557477 0.000000 0.000000 0.000000 7.125000 0.000000 0.000000 12.076379 28.310759 5.007104
-5.681884 16.638810 -23.200346 -272.164035 -84.985400 281.732326 0.000000 0.000000 0.000000 -22.049409 -5.787788 -17.584120 2.082979 9.036848 25.910706 0.465917 -14.392822 -14.820597 0.835977 -5.831180 -16.295889 0.000000 0.000000 0.000000 -7.781605 3.782054 -16.302256 -2.762134 -10.298316 29.949563 0.016632 -3.195838 -3.530309 -3.762514 11.837127 -35.158715 1.894787 2.470922 -3.501863 -2.471780 2.937954 -7.896504 -3.673964 1.155437 -6.021939 -32.407505 -8.621127 14.559745 38.336296 -18.296853 -2.615204 19.212045 -10.966318 4.115023 0.000000 0.000000 0.000000 5.036862 16.033829 -26.806218 19.754564 -30.345517 5.406771 11.692277 -36.125091 13.166851 0.000000 0.000000 0.000000 -7.125000 0.000000 0.000000 -10.763219 16.691650 -7.350152 0.000000 0.000000 0.000000 -4.035569 8.665862 7.178650 -14.237470 -23.073171 -2.920490 -10.667602 25.879016 -1.853411 0.000000 0.000000 0.000000 7.125000 0.000000 0.000000 12.238067 28.014812 5.164898
